<svg height="512pt" viewBox="-103 0 512 512" width="512pt" xmlns="http://www.w3.org/2000/svg"><path d="m67.144531 422c-8.285156 0-15 6.714844-15 15v32.90625c0 6.667969-5.4375 12.09375-12.121093 12.09375-8.285157 0-15 6.714844-15 15s6.714843 15 15 15c23.226562 0 42.121093-18.882812 42.121093-42.09375v-32.90625c0-8.285156-6.714843-15-15-15zm0 0" fill="#2a5959"/><path d="m264.976562 482c-6.683593 0-12.121093-5.425781-12.121093-12.09375v-32.90625c0-8.285156-6.714844-15-15-15-8.28125 0-15 6.714844-15 15v32.90625c0 23.210938 18.898437 42.09375 42.121093 42.09375 8.285157 0 15-6.714844 15-15s-6.714843-15-15-15zm0 0" fill="#2b4747"/><path d="m305 64.929688v322.140624c0 35.800782-29.128906 64.929688-64.929688 64.929688h-175.140624c-35.800782 0-64.929688-29.128906-64.929688-64.929688v-322.140624c0-35.800782 29.128906-64.929688 64.929688-64.929688h175.140624c35.800782 0 64.929688 29.128906 64.929688 64.929688zm0 0" fill="#e56705"/><path d="m305 64.929688v322.140624c0 35.800782-29.128906 64.929688-64.929688 64.929688h-87.570312v-452h87.570312c35.800782 0 64.929688 29.128906 64.929688 64.929688zm0 0" fill="#d55f05"/><path d="m256.710938 70.71875v310.5625c0 16.117188-13.070313 29.179688-29.191407 29.179688h-151.039062c-16.121094 0-29.191407-13.0625-29.191407-29.179688v-310.5625c0-16.117188 13.070313-29.179688 29.191407-29.179688h151.039062c16.121094 0 29.191407 13.0625 29.191407 29.179688zm0 0" fill="#fff"/><path d="m256.710938 70.71875v310.5625c0 16.117188-13.070313 29.179688-29.191407 29.179688h-75.019531v-368.921876h75.019531c16.121094 0 29.191407 13.0625 29.191407 29.179688zm0 0" fill="#b0e7ff"/></svg>